# Blender v2.78 (sub 0) OBJ File: 'slamough.blend'
# www.blender.org
o Foot_Cube.003
v 0.158474 -0.406868 1.051521
v -0.398730 -0.314795 0.018884
v -0.054567 -0.246369 -0.376569
v 0.405817 -0.225817 -0.105717
v 0.000000 -0.000000 -0.000000
v 0.486998 -0.306898 0.618585
v 0.113594 -0.167760 0.820557
v 0.106534 -0.533350 0.520700
v 0.007087 -0.540611 -0.086832
v -0.266871 -0.394212 0.722672
v 0.137843 -0.488896 0.844706
v -0.332866 -0.107964 0.035678
v -0.040353 -0.046859 -0.314829
v 0.334637 -0.027189 -0.057386
v 0.055110 -0.056673 0.425826
v -0.324040 -0.346201 0.356279
v 0.429072 -0.360047 0.917265
v -0.136330 -0.425532 0.995331
v 0.154900 -0.296684 1.067890
v 0.414790 -0.174111 0.749364
v 0.370740 -0.461514 0.513827
v -0.189367 -0.252806 0.816786
v -0.155907 -0.513789 0.602537
v -0.354414 -0.286136 -0.241427
v 0.274335 -0.218571 -0.345135
v 0.442498 -0.258471 0.247063
v -0.263457 -0.499381 -0.029059
v -0.039726 -0.457847 -0.271733
v 0.275859 -0.446689 -0.122898
v 0.063348 -0.547999 0.177517
v -0.253857 -0.157697 0.431703
v -0.273026 -0.133631 -0.191625
v 0.366136 -0.078482 0.357871
v 0.213692 -0.077588 -0.265234
v 0.333179 -0.443857 0.768043
v -0.068413 -0.486493 0.830600
v -0.076487 -0.325694 0.991697
v 0.359553 -0.271316 0.938602
v -0.202589 -0.512773 0.253552
v -0.242687 -0.430187 -0.191595
v 0.187059 -0.386626 -0.265549
v 0.327226 -0.460394 0.163559
vt 0.4893 0.0587
vt 0.4908 0.1380
vt 0.3739 0.1459
vt 0.3629 0.0623
vt 0.3479 0.0000
vt 0.4869 0.0021
vt 0.6259 0.0041
vt 0.6157 0.0551
vt 0.6076 0.1301
vt 0.9114 0.4716
vt 0.8228 0.4751
vt 0.8268 0.3716
vt 0.9093 0.3387
vt 0.9918 0.3057
vt 1.0000 0.4681
vt 1.0000 0.6343
vt 0.9123 0.5994
vt 0.8245 0.5645
vt 0.4426 0.7816
vt 0.3501 0.7652
vt 0.3524 0.6329
vt 0.4437 0.6144
vt 0.5351 0.5960
vt 0.5351 0.7980
vt 0.5351 1.0000
vt 0.4415 0.9488
vt 0.3479 0.8975
vt 0.7245 0.1663
vt 0.6279 0.1561
vt 0.6259 0.0675
vt 0.7235 0.0337
vt 0.8211 0.0000
vt 0.8211 0.1764
vt 0.8126 0.3465
vt 0.7234 0.3028
vt 0.6341 0.2591
vt 0.1679 0.4870
vt 0.3243 0.4827
vt 0.3479 0.6559
vt 0.1739 0.6559
vt 0.0000 0.6559
vt 0.0114 0.4913
vt 0.0185 0.3290
vt 0.1619 0.3216
vt 0.3052 0.3141
vt 0.7179 0.4473
vt 0.6485 0.3908
vt 0.7873 0.5038
vt 0.7536 0.6547
vt 0.7103 0.5958
vt 0.6670 0.5368
vt 0.1560 0.1633
vt 0.2950 0.1547
vt 0.0170 0.1718
vt 0.0112 0.0171
vt 0.1502 0.0085
vt 0.2892 0.0000
vt 0.4903 0.2625
vt 0.6040 0.2532
vt 0.6058 0.3857
vt 0.4921 0.3950
vt 0.3784 0.4043
vt 0.3766 0.2718
vt 0.5005 0.4982
vt 0.6142 0.4889
vt 0.6259 0.5774
vt 0.5122 0.5867
vt 0.3985 0.5960
vt 0.3868 0.5075
vt 0.9046 0.1956
vt 0.9671 0.1510
vt 0.8421 0.2402
vt 0.8632 0.0947
vt 0.8987 0.0473
vt 0.9341 0.0000
vn 0.3180 -0.8950 0.3128
vn 0.4836 0.0118 0.8752
vn -0.2446 0.0067 0.9696
vn -0.0198 -0.9339 0.3569
vn -0.7748 -0.6199 0.1246
vn -0.9361 0.2694 0.2260
vn -0.8959 0.4021 -0.1889
vn -0.7726 -0.5821 -0.2536
vn -0.3369 -0.4739 -0.8136
vn -0.4753 0.3805 -0.7933
vn 0.1284 0.3958 -0.9093
vn 0.1405 -0.4543 -0.8797
vn 0.7196 -0.4821 -0.4998
vn 0.7496 0.4678 -0.4682
vn 0.9250 0.3776 -0.0408
vn 0.8702 -0.4681 -0.1538
vn 0.0930 0.9733 -0.2098
vn -0.3566 0.9242 -0.1365
vn -0.2951 0.9402 0.1699
vn 0.0977 0.9883 0.1168
vn 0.8624 -0.4869 -0.1386
vn 0.8953 0.4448 -0.0253
vn 0.8829 0.3502 0.3127
vn 0.7033 -0.7068 0.0761
vn 0.0990 0.9656 0.2404
vn -0.2778 0.9170 0.2863
vn -0.2515 0.8343 0.4906
vn 0.1488 0.8761 0.4585
vn -0.0937 -0.9951 0.0318
vn 0.2884 -0.9574 -0.0174
vn 0.2631 -0.9589 0.1059
vn -0.0270 -0.9905 0.1345
vn -0.1428 -0.9897 -0.0070
vn -0.2393 -0.8960 -0.3740
vn 0.2528 -0.8442 -0.4728
vn 0.3129 -0.9448 -0.0973
vn -0.9281 0.3081 0.2089
vn -0.7498 -0.6586 0.0637
vn -0.5049 -0.8365 0.2131
vn -0.8165 0.2744 0.5080
s off
f 1/1/1 11/2/1 35/3/1 17/4/1
f 1/1/2 17/4/2 38/5/2 19/6/2
f 1/1/3 19/6/3 37/7/3 18/8/3
f 1/1/4 18/8/4 36/9/4 11/2/4
f 2/10/5 27/11/5 39/12/5 16/13/5
f 2/10/6 16/13/6 31/14/6 12/15/6
f 2/10/7 12/15/7 32/16/7 24/17/7
f 2/10/8 24/17/8 40/18/8 27/11/8
f 3/19/9 28/20/9 40/21/9 24/22/9
f 3/19/10 24/22/10 32/23/10 13/24/10
f 3/19/11 13/24/11 34/25/11 25/26/11
f 3/19/12 25/26/12 41/27/12 28/20/12
f 4/28/13 29/29/13 41/30/13 25/31/13
f 4/28/14 25/31/14 34/32/14 14/33/14
f 4/28/15 14/33/15 33/34/15 26/35/15
f 4/28/16 26/35/16 42/36/16 29/29/16
f 5/37/17 14/38/17 34/39/17 13/40/17
f 5/37/18 13/40/18 32/41/18 12/42/18
f 5/37/19 12/42/19 31/43/19 15/44/19
f 5/37/20 15/44/20 33/45/20 14/38/20
f 6/46/21 21/47/21 42/36/21 26/35/21
f 6/46/22 26/35/22 33/34/22 20/48/22
f 6/46/23 20/48/23 38/49/23 17/50/23
f 6/46/24 17/50/24 35/51/24 21/47/24
f 7/52/25 20/53/25 33/45/25 15/44/25
f 7/52/26 15/44/26 31/43/26 22/54/26
f 7/52/27 22/54/27 37/55/27 19/56/27
f 7/52/28 19/56/28 38/57/28 20/53/28
f 8/58/29 23/59/29 39/60/29 30/61/29
f 8/58/30 30/61/30 42/62/30 21/63/30
f 8/58/31 21/63/31 35/3/31 11/2/31
f 8/58/32 11/2/32 36/9/32 23/59/32
f 9/64/33 30/61/33 39/60/33 27/65/33
f 9/64/34 27/65/34 40/66/34 28/67/34
f 9/64/35 28/67/35 41/68/35 29/69/35
f 9/64/36 29/69/36 42/62/36 30/61/36
f 10/70/37 22/71/37 31/14/37 16/13/37
f 10/70/38 16/13/38 39/12/38 23/72/38
f 10/70/39 23/72/39 36/73/39 18/74/39
f 10/70/40 18/74/40 37/75/40 22/71/40
